# xmcd
#
# Track frame offsets:
#	150
#	15532
#	29624
#	41399
#	53650
#	67091
#	82107
#	94694
#	108156
#	124166
#	137516
#	148857
#	166050
#	178287
#	193254
#	209614
#	224973
#	239352
#	254529
#	269412
#	287179
#	304827
#	317470
#
# Disc length: 4440 seconds
#
# Revision: 0
# Processed by: cddbd v1.4PL0 Copyright (c) Steve Scherf et al.
# Submitted via: dBpowerAMP V4.0
#
DISCID=68115617
DTITLE=John Conlee - John Conlee Classics
DYEAR=2002
DGENRE=Country
TTITLE0=Rose Colored Glassea
TTITLE1=Lady Lay Down
TTITLE2=Backside Of Thirty
TTITLE3=Before My Time
TTITLE4=Baby You're Something
TTITLE5=Friday Night Blues
TTITLE6=She Can't Say That Anymore
TTITLE7=What I Had With You
TTITLE8=Miss Emily's Picture
TTITLE9=Could You Love Me One More Time
TTITLE10=Busted
TTITLE11=I Don't Remember Loving You
TTITLE12=Common Man
TTITLE13=I'm Only In It For The Love
TTITLE14=In My Eyes
TTITLE15=As Long As I'm Rockin' With You
TTITLE16=Way Back
TTITLE17=Years After You
TTITLE18=Blue Highway
TTITLE19=Old School
TTITLE20=From Your Knees
TTITLE21=She's Mine
TTITLE22=How High Did You Go
EXTD=RCR Records
EXTT0=
EXTT1=
EXTT2=
EXTT3=
EXTT4=
EXTT5=
EXTT6=
EXTT7=
EXTT8=
EXTT9=
EXTT10=
EXTT11=
EXTT12=
EXTT13=
EXTT14=
EXTT15=
EXTT16=
EXTT17=
EXTT18=
EXTT19=
EXTT20=
EXTT21=
EXTT22=
PLAYORDER=
